<?xml version="1.0" encoding="utf-8"?>
<!-- Generator: Adobe Illustrator 26.5.0, SVG Export Plug-In . SVG Version: 6.00 Build 0)  -->
<svg version="1.1" id="Layer_1" xmlns="http://www.w3.org/2000/svg" xmlns:xlink="http://www.w3.org/1999/xlink" x="0px" y="0px"
	 viewBox="0 0 420 345" style="enable-background:new 0 0 420 345;" xml:space="preserve">
<style type="text/css">
	.st0{fill:#FFFFFF;}
</style>
<g>
	<path class="st0" d="M22.5,45C10.1,45,0,34.9,0,22.5C0,10.1,10.1,0,22.5,0h375C409.9,0,420,10.1,420,22.5
		c0,12.4-10.1,22.5-22.5,22.5L22.5,45z"/>
	<path class="st0" d="M22.5,195C10.1,195,0,184.9,0,172.5C0,160.1,10.1,150,22.5,150h375c12.4,0,22.5,10.1,22.5,22.5
		c0,12.4-10.1,22.5-22.5,22.5L22.5,195L22.5,195z"/>
	<path class="st0" d="M22.5,345C10.1,345,0,334.9,0,322.5C0,310.1,10.1,300,22.5,300l375,0c12.4,0,22.5,10.1,22.5,22.5
		c0,12.4-10.1,22.5-22.5,22.5L22.5,345z"/>
</g>
</svg>
